<svg version="1.1" xmlns="http://www.w3.org/2000/svg" xmlns:xlink="http://www.w3.org/1999/xlink" width="292.01904296875" height="577"><defs/><g><g transform="translate(-6,-158) scale(1,1)"><rect fill="#C0C0C0" stroke="none" x="71" y="175" width="189.82421875" height="105" opacity="0.2"/></g><g transform="translate(-6,-158) scale(1,1)"><rect fill="#ffffff" stroke="none" x="64" y="168" width="189.82421875" height="105"/></g><g transform="translate(-6,-158) scale(1,1)"><path fill="none" stroke="#000000" d="M 64 168 L 253.82421875 168 L 253.82421875 273 L 64 273 L 64 168 Z Z" stroke-miterlimit="10"/></g><g transform="translate(-6,-158) scale(1,1)"><path fill="none" stroke="#000000" d="M 64 191 L 253.82421875 191" stroke-miterlimit="10"/></g><g transform="translate(-6,-158) scale(1,1)"><path fill="none" stroke="#000000" d="M 92.05908203125 191 L 92.05908203125 273" stroke-miterlimit="10"/></g><g transform="translate(-6,-158) scale(1,1)"><path fill="none" stroke="#000000" d="M 149.72998046875 191 L 149.72998046875 273" stroke-miterlimit="10"/></g><g transform="translate(-6,-158) scale(1,1)"><g><path fill="none" stroke="none"/><text fill="#000000" stroke="none" font-family="Arial" font-size="13px" font-style="normal" font-weight="bold" text-decoration="none" x="136.146240234375" y="185.5">estados</text></g></g><g transform="translate(-6,-158) scale(1,1)"><g><path fill="none" stroke="none"/><text fill="#000000" stroke="none" font-family="Arial" font-size="13px" font-style="normal" font-weight="normal" text-decoration="none" x="69" y="209">PK</text></g></g><g transform="translate(-6,-158) scale(1,1)"><g><path fill="none" stroke="none"/><text fill="#000000" stroke="none" font-family="Arial" font-size="13px" font-style="normal" font-weight="normal" text-decoration="none" x="97.05908203125" y="209">id</text></g></g><g transform="translate(-6,-158) scale(1,1)"><g><path fill="none" stroke="none"/><text fill="#000000" stroke="none" font-family="Arial" font-size="13px" font-style="normal" font-weight="normal" text-decoration="none" x="154.72998046875" y="209">INTEGER(11)</text></g></g><g transform="translate(-6,-158) scale(1,1)"><g><path fill="none" stroke="none"/><text fill="#000000" stroke="none" font-family="Arial" font-size="13px" font-style="normal" font-weight="normal" text-decoration="none" x="69" y="208.5"></text></g></g><g transform="translate(-6,-158) scale(1,1)"><g><path fill="none" stroke="none"/><text fill="#000000" stroke="none" font-family="Arial" font-size="13px" font-style="normal" font-weight="normal" text-decoration="none" x="69" y="224">U</text></g></g><g transform="translate(-6,-158) scale(1,1)"><g><path fill="none" stroke="none"/><text fill="#000000" stroke="none" font-family="Arial" font-size="13px" font-style="normal" font-weight="normal" text-decoration="none" x="97.05908203125" y="224">clave</text></g></g><g transform="translate(-6,-158) scale(1,1)"><g><path fill="none" stroke="none"/><text fill="#000000" stroke="none" font-family="Arial" font-size="13px" font-style="normal" font-weight="normal" text-decoration="none" x="154.72998046875" y="224">VARCHAR(2)</text></g></g><g transform="translate(-6,-158) scale(1,1)"><g><path fill="none" stroke="none"/><text fill="#000000" stroke="none" font-family="Arial" font-size="13px" font-style="normal" font-weight="normal" text-decoration="none" x="69" y="223.5"></text></g></g><g transform="translate(-6,-158) scale(1,1)"><g><path fill="none" stroke="none"/><text fill="#000000" stroke="none" font-family="Arial" font-size="13px" font-style="normal" font-weight="normal" text-decoration="none" x="69" y="239"></text></g></g><g transform="translate(-6,-158) scale(1,1)"><g><path fill="none" stroke="none"/><text fill="#000000" stroke="none" font-family="Arial" font-size="13px" font-style="normal" font-weight="normal" text-decoration="none" x="97.05908203125" y="239">nombre</text></g></g><g transform="translate(-6,-158) scale(1,1)"><g><path fill="none" stroke="none"/><text fill="#000000" stroke="none" font-family="Arial" font-size="13px" font-style="normal" font-weight="normal" text-decoration="none" x="154.72998046875" y="239">VARCHAR(40)</text></g></g><g transform="translate(-6,-158) scale(1,1)"><g><path fill="none" stroke="none"/><text fill="#000000" stroke="none" font-family="Arial" font-size="13px" font-style="normal" font-weight="normal" text-decoration="none" x="69" y="238.5"></text></g></g><g transform="translate(-6,-158) scale(1,1)"><g><path fill="none" stroke="none"/><text fill="#000000" stroke="none" font-family="Arial" font-size="13px" font-style="normal" font-weight="normal" text-decoration="none" x="69" y="254"></text></g></g><g transform="translate(-6,-158) scale(1,1)"><g><path fill="none" stroke="none"/><text fill="#000000" stroke="none" font-family="Arial" font-size="13px" font-style="normal" font-weight="normal" text-decoration="none" x="97.05908203125" y="254">abrev</text></g></g><g transform="translate(-6,-158) scale(1,1)"><g><path fill="none" stroke="none"/><text fill="#000000" stroke="none" font-family="Arial" font-size="13px" font-style="normal" font-weight="normal" text-decoration="none" x="154.72998046875" y="254">VARCHAR(10)</text></g></g><g transform="translate(-6,-158) scale(1,1)"><g><path fill="none" stroke="none"/><text fill="#000000" stroke="none" font-family="Arial" font-size="13px" font-style="normal" font-weight="normal" text-decoration="none" x="69" y="253.5"></text></g></g><g transform="translate(-6,-158) scale(1,1)"><g><path fill="none" stroke="none"/><text fill="#000000" stroke="none" font-family="Arial" font-size="13px" font-style="normal" font-weight="normal" text-decoration="none" x="69" y="269"></text></g></g><g transform="translate(-6,-158) scale(1,1)"><g><path fill="none" stroke="none"/><text fill="#000000" stroke="none" font-family="Arial" font-size="13px" font-style="normal" font-weight="normal" text-decoration="none" x="97.05908203125" y="269">activo</text></g></g><g transform="translate(-6,-158) scale(1,1)"><g><path fill="none" stroke="none"/><text fill="#000000" stroke="none" font-family="Arial" font-size="13px" font-style="normal" font-weight="normal" text-decoration="none" x="154.72998046875" y="269">BOOLEAN</text></g></g><g transform="translate(-6,-158) scale(1,1)"><g><path fill="none" stroke="none"/><text fill="#000000" stroke="none" font-family="Arial" font-size="13px" font-style="normal" font-weight="normal" text-decoration="none" x="69" y="268.5"></text></g></g><g transform="translate(-6,-158) scale(1,1)"><rect fill="#C0C0C0" stroke="none" x="71" y="303" width="202.1259765625" height="105" opacity="0.2"/></g><g transform="translate(-6,-158) scale(1,1)"><rect fill="#ffffff" stroke="none" x="64" y="296" width="202.1259765625" height="105"/></g><g transform="translate(-6,-158) scale(1,1)"><path fill="none" stroke="#000000" d="M 64 296 L 266.1259765625 296 L 266.1259765625 401 L 64 401 L 64 296 Z Z" stroke-miterlimit="10"/></g><g transform="translate(-6,-158) scale(1,1)"><path fill="none" stroke="#000000" d="M 64 319 L 266.1259765625 319" stroke-miterlimit="10"/></g><g transform="translate(-6,-158) scale(1,1)"><path fill="none" stroke="#000000" d="M 92.05908203125 319 L 92.05908203125 401" stroke-miterlimit="10"/></g><g transform="translate(-6,-158) scale(1,1)"><path fill="none" stroke="#000000" d="M 162.74267578125 319 L 162.74267578125 401" stroke-miterlimit="10"/></g><g transform="translate(-6,-158) scale(1,1)"><g><path fill="none" stroke="none"/><text fill="#000000" stroke="none" font-family="Arial" font-size="13px" font-style="normal" font-weight="bold" text-decoration="none" x="134.356201171875" y="313.5">municipios</text></g></g><g transform="translate(-6,-158) scale(1,1)"><g><path fill="none" stroke="none"/><text fill="#000000" stroke="none" font-family="Arial" font-size="13px" font-style="normal" font-weight="normal" text-decoration="none" x="69" y="337">PK</text></g></g><g transform="translate(-6,-158) scale(1,1)"><g><path fill="none" stroke="none"/><text fill="#000000" stroke="none" font-family="Arial" font-size="13px" font-style="normal" font-weight="normal" text-decoration="none" x="97.05908203125" y="337">id</text></g></g><g transform="translate(-6,-158) scale(1,1)"><g><path fill="none" stroke="none"/><text fill="#000000" stroke="none" font-family="Arial" font-size="13px" font-style="normal" font-weight="normal" text-decoration="none" x="167.74267578125" y="337">INTEGER(11)</text></g></g><g transform="translate(-6,-158) scale(1,1)"><g><path fill="none" stroke="none"/><text fill="#000000" stroke="none" font-family="Arial" font-size="13px" font-style="normal" font-weight="normal" text-decoration="none" x="69" y="336.5"></text></g></g><g transform="translate(-6,-158) scale(1,1)"><g><path fill="none" stroke="none"/><text fill="#000000" stroke="none" font-family="Arial" font-size="13px" font-style="normal" font-weight="normal" text-decoration="none" x="69" y="352">FK</text></g></g><g transform="translate(-6,-158) scale(1,1)"><g><path fill="none" stroke="none"/><text fill="#000000" stroke="none" font-family="Arial" font-size="13px" font-style="normal" font-weight="normal" text-decoration="none" x="97.05908203125" y="352">estado_id</text></g></g><g transform="translate(-6,-158) scale(1,1)"><g><path fill="none" stroke="none"/><text fill="#000000" stroke="none" font-family="Arial" font-size="13px" font-style="normal" font-weight="normal" text-decoration="none" x="167.74267578125" y="352">INTEGER(11)</text></g></g><g transform="translate(-6,-158) scale(1,1)"><g><path fill="none" stroke="none"/><text fill="#000000" stroke="none" font-family="Arial" font-size="13px" font-style="normal" font-weight="normal" text-decoration="none" x="69" y="351.5"></text></g></g><g transform="translate(-6,-158) scale(1,1)"><g><path fill="none" stroke="none"/><text fill="#000000" stroke="none" font-family="Arial" font-size="13px" font-style="normal" font-weight="normal" text-decoration="none" x="69" y="367"></text></g></g><g transform="translate(-6,-158) scale(1,1)"><g><path fill="none" stroke="none"/><text fill="#000000" stroke="none" font-family="Arial" font-size="13px" font-style="normal" font-weight="normal" text-decoration="none" x="97.05908203125" y="367">clave</text></g></g><g transform="translate(-6,-158) scale(1,1)"><g><path fill="none" stroke="none"/><text fill="#000000" stroke="none" font-family="Arial" font-size="13px" font-style="normal" font-weight="normal" text-decoration="none" x="167.74267578125" y="367">VARCHAR(3)</text></g></g><g transform="translate(-6,-158) scale(1,1)"><g><path fill="none" stroke="none"/><text fill="#000000" stroke="none" font-family="Arial" font-size="13px" font-style="normal" font-weight="normal" text-decoration="none" x="69" y="366.5"></text></g></g><g transform="translate(-6,-158) scale(1,1)"><g><path fill="none" stroke="none"/><text fill="#000000" stroke="none" font-family="Arial" font-size="13px" font-style="normal" font-weight="normal" text-decoration="none" x="69" y="382"></text></g></g><g transform="translate(-6,-158) scale(1,1)"><g><path fill="none" stroke="none"/><text fill="#000000" stroke="none" font-family="Arial" font-size="13px" font-style="normal" font-weight="normal" text-decoration="none" x="97.05908203125" y="382">nombre</text></g></g><g transform="translate(-6,-158) scale(1,1)"><g><path fill="none" stroke="none"/><text fill="#000000" stroke="none" font-family="Arial" font-size="13px" font-style="normal" font-weight="normal" text-decoration="none" x="167.74267578125" y="382">VARCHAR(100)</text></g></g><g transform="translate(-6,-158) scale(1,1)"><g><path fill="none" stroke="none"/><text fill="#000000" stroke="none" font-family="Arial" font-size="13px" font-style="normal" font-weight="normal" text-decoration="none" x="69" y="381.5"></text></g></g><g transform="translate(-6,-158) scale(1,1)"><g><path fill="none" stroke="none"/><text fill="#000000" stroke="none" font-family="Arial" font-size="13px" font-style="normal" font-weight="normal" text-decoration="none" x="69" y="397"></text></g></g><g transform="translate(-6,-158) scale(1,1)"><g><path fill="none" stroke="none"/><text fill="#000000" stroke="none" font-family="Arial" font-size="13px" font-style="normal" font-weight="normal" text-decoration="none" x="97.05908203125" y="397">activo</text></g></g><g transform="translate(-6,-158) scale(1,1)"><g><path fill="none" stroke="none"/><text fill="#000000" stroke="none" font-family="Arial" font-size="13px" font-style="normal" font-weight="normal" text-decoration="none" x="167.74267578125" y="397">BOOLEAN</text></g></g><g transform="translate(-6,-158) scale(1,1)"><g><path fill="none" stroke="none"/><text fill="#000000" stroke="none" font-family="Arial" font-size="13px" font-style="normal" font-weight="normal" text-decoration="none" x="69" y="396.5"></text></g></g><g transform="translate(-6,-158) scale(1,1)"><path fill="none" stroke="#000000" d="M 64 200 L 48 200 M 48 200 A 8 8 0 0 0 40 208 L 40 336 M 40 336 A 8 8 0 0 0 48 344 L 64 344" stroke-miterlimit="10"/></g><g transform="translate(-6,-158) scale(1,1)"><path fill="none" stroke="#000000" d="M 50 344 L 64 351" stroke-miterlimit="10"/></g><g transform="translate(-6,-158) scale(1,1)"><path fill="none" stroke="#000000" d="M 50 344 L 64 337" stroke-miterlimit="10"/></g><g transform="translate(-6,-158) scale(1,1)"><path fill="#FFFFFF" stroke="none" d="M 35 344 C 35 340.1340064 38.1340064 337 42 337 C 45.8659936 337 49 340.1340064 49 344 C 49 347.8659936 45.8659936 351 42 351 C 38.1340064 351 35 347.8659936 35 344 Z"/></g><g transform="translate(-6,-158) scale(1,1)"><path fill="none" stroke="#000000" d="M 35 344 C 35 340.1340064 38.1340064 337 42 337 C 45.8659936 337 49 340.1340064 49 344 C 49 347.8659936 45.8659936 351 42 351 C 38.1340064 351 35 347.8659936 35 344 Z" stroke-miterlimit="10"/></g><g transform="translate(-6,-158) scale(1,1)"><path fill="none" stroke="#000000" d="M 57 207 L 57 193" stroke-miterlimit="10"/></g><g transform="translate(-6,-158) scale(1,1)"><path fill="none" stroke="#000000" d="M 50 207 L 50 193" stroke-miterlimit="10"/></g><g transform="translate(-6,-158) scale(1,1)"><g><path fill="none" stroke="none"/><text fill="#000000" stroke="none" font-family="Arial" font-size="13px" font-style="normal" font-weight="normal" text-decoration="none" x="37.5" y="220.5"></text></g></g><g transform="translate(-6,-158) scale(1,1)"><g><path fill="none" stroke="none"/><text fill="#000000" stroke="none" font-family="Arial" font-size="13px" font-style="normal" font-weight="normal" text-decoration="none" x="27.5" y="335.5">1:m</text></g></g><g transform="translate(-6,-158) scale(1,1)"><rect fill="#C0C0C0" stroke="none" x="71" y="447" width="224.01904296875" height="285" opacity="0.2"/></g><g transform="translate(-6,-158) scale(1,1)"><rect fill="#ffffff" stroke="none" x="64" y="440" width="224.01904296875" height="285"/></g><g transform="translate(-6,-158) scale(1,1)"><path fill="none" stroke="#000000" d="M 64 440 L 288.01904296875 440 L 288.01904296875 725 L 64 725 L 64 440 Z Z" stroke-miterlimit="10"/></g><g transform="translate(-6,-158) scale(1,1)"><path fill="none" stroke="#000000" d="M 64 463 L 288.01904296875 463" stroke-miterlimit="10"/></g><g transform="translate(-6,-158) scale(1,1)"><path fill="none" stroke="#000000" d="M 92.05908203125 463 L 92.05908203125 725" stroke-miterlimit="10"/></g><g transform="translate(-6,-158) scale(1,1)"><path fill="none" stroke="#000000" d="M 182.22998046875 463 L 182.22998046875 725" stroke-miterlimit="10"/></g><g transform="translate(-6,-158) scale(1,1)"><g><path fill="none" stroke="none"/><text fill="#000000" stroke="none" font-family="Arial" font-size="13px" font-style="normal" font-weight="bold" text-decoration="none" x="143.4873046875" y="457.5">localidades</text></g></g><g transform="translate(-6,-158) scale(1,1)"><g><path fill="none" stroke="none"/><text fill="#000000" stroke="none" font-family="Arial" font-size="13px" font-style="normal" font-weight="normal" text-decoration="none" x="69" y="481">PK</text></g></g><g transform="translate(-6,-158) scale(1,1)"><g><path fill="none" stroke="none"/><text fill="#000000" stroke="none" font-family="Arial" font-size="13px" font-style="normal" font-weight="normal" text-decoration="none" x="97.05908203125" y="481">id</text></g></g><g transform="translate(-6,-158) scale(1,1)"><g><path fill="none" stroke="none"/><text fill="#000000" stroke="none" font-family="Arial" font-size="13px" font-style="normal" font-weight="normal" text-decoration="none" x="187.22998046875" y="481">INTEGER(11)</text></g></g><g transform="translate(-6,-158) scale(1,1)"><g><path fill="none" stroke="none"/><text fill="#000000" stroke="none" font-family="Arial" font-size="13px" font-style="normal" font-weight="normal" text-decoration="none" x="69" y="480.5"></text></g></g><g transform="translate(-6,-158) scale(1,1)"><g><path fill="none" stroke="none"/><text fill="#000000" stroke="none" font-family="Arial" font-size="13px" font-style="normal" font-weight="normal" text-decoration="none" x="69" y="496">FK</text></g></g><g transform="translate(-6,-158) scale(1,1)"><g><path fill="none" stroke="none"/><text fill="#000000" stroke="none" font-family="Arial" font-size="13px" font-style="normal" font-weight="normal" text-decoration="none" x="97.05908203125" y="496">municipio_id</text></g></g><g transform="translate(-6,-158) scale(1,1)"><g><path fill="none" stroke="none"/><text fill="#000000" stroke="none" font-family="Arial" font-size="13px" font-style="normal" font-weight="normal" text-decoration="none" x="187.22998046875" y="496">INTEGER</text></g></g><g transform="translate(-6,-158) scale(1,1)"><g><path fill="none" stroke="none"/><text fill="#000000" stroke="none" font-family="Arial" font-size="13px" font-style="normal" font-weight="normal" text-decoration="none" x="69" y="495.5"></text></g></g><g transform="translate(-6,-158) scale(1,1)"><g><path fill="none" stroke="none"/><text fill="#000000" stroke="none" font-family="Arial" font-size="13px" font-style="normal" font-weight="normal" text-decoration="none" x="69" y="511"></text></g></g><g transform="translate(-6,-158) scale(1,1)"><g><path fill="none" stroke="none"/><text fill="#000000" stroke="none" font-family="Arial" font-size="13px" font-style="normal" font-weight="normal" text-decoration="none" x="97.05908203125" y="511">clave</text></g></g><g transform="translate(-6,-158) scale(1,1)"><g><path fill="none" stroke="none"/><text fill="#000000" stroke="none" font-family="Arial" font-size="13px" font-style="normal" font-weight="normal" text-decoration="none" x="187.22998046875" y="511">VARCHAR(4)</text></g></g><g transform="translate(-6,-158) scale(1,1)"><g><path fill="none" stroke="none"/><text fill="#000000" stroke="none" font-family="Arial" font-size="13px" font-style="normal" font-weight="normal" text-decoration="none" x="69" y="510.5"></text></g></g><g transform="translate(-6,-158) scale(1,1)"><g><path fill="none" stroke="none"/><text fill="#000000" stroke="none" font-family="Arial" font-size="13px" font-style="normal" font-weight="normal" text-decoration="none" x="69" y="526"></text></g></g><g transform="translate(-6,-158) scale(1,1)"><g><path fill="none" stroke="none"/><text fill="#000000" stroke="none" font-family="Arial" font-size="13px" font-style="normal" font-weight="normal" text-decoration="none" x="97.05908203125" y="526">nombre</text></g></g><g transform="translate(-6,-158) scale(1,1)"><g><path fill="none" stroke="none"/><text fill="#000000" stroke="none" font-family="Arial" font-size="13px" font-style="normal" font-weight="normal" text-decoration="none" x="187.22998046875" y="526">VARCHAR(100)</text></g></g><g transform="translate(-6,-158) scale(1,1)"><g><path fill="none" stroke="none"/><text fill="#000000" stroke="none" font-family="Arial" font-size="13px" font-style="normal" font-weight="normal" text-decoration="none" x="69" y="525.5"></text></g></g><g transform="translate(-6,-158) scale(1,1)"><g><path fill="none" stroke="none"/><text fill="#000000" stroke="none" font-family="Arial" font-size="13px" font-style="normal" font-weight="normal" text-decoration="none" x="69" y="541"></text></g></g><g transform="translate(-6,-158) scale(1,1)"><g><path fill="none" stroke="none"/><text fill="#000000" stroke="none" font-family="Arial" font-size="13px" font-style="normal" font-weight="normal" text-decoration="none" x="97.05908203125" y="541">mapa</text></g></g><g transform="translate(-6,-158) scale(1,1)"><g><path fill="none" stroke="none"/><text fill="#000000" stroke="none" font-family="Arial" font-size="13px" font-style="normal" font-weight="normal" text-decoration="none" x="187.22998046875" y="541">INTEGER(10)</text></g></g><g transform="translate(-6,-158) scale(1,1)"><g><path fill="none" stroke="none"/><text fill="#000000" stroke="none" font-family="Arial" font-size="13px" font-style="normal" font-weight="normal" text-decoration="none" x="69" y="540.5"></text></g></g><g transform="translate(-6,-158) scale(1,1)"><g><path fill="none" stroke="none"/><text fill="#000000" stroke="none" font-family="Arial" font-size="13px" font-style="normal" font-weight="normal" text-decoration="none" x="69" y="556"></text></g></g><g transform="translate(-6,-158) scale(1,1)"><g><path fill="none" stroke="none"/><text fill="#000000" stroke="none" font-family="Arial" font-size="13px" font-style="normal" font-weight="normal" text-decoration="none" x="97.05908203125" y="556">ambito</text></g></g><g transform="translate(-6,-158) scale(1,1)"><g><path fill="none" stroke="none"/><text fill="#000000" stroke="none" font-family="Arial" font-size="13px" font-style="normal" font-weight="normal" text-decoration="none" x="187.22998046875" y="556">VARCHAR(1)</text></g></g><g transform="translate(-6,-158) scale(1,1)"><g><path fill="none" stroke="none"/><text fill="#000000" stroke="none" font-family="Arial" font-size="13px" font-style="normal" font-weight="normal" text-decoration="none" x="69" y="555.5"></text></g></g><g transform="translate(-6,-158) scale(1,1)"><g><path fill="none" stroke="none"/><text fill="#000000" stroke="none" font-family="Arial" font-size="13px" font-style="normal" font-weight="normal" text-decoration="none" x="69" y="571"></text></g></g><g transform="translate(-6,-158) scale(1,1)"><g><path fill="none" stroke="none"/><text fill="#000000" stroke="none" font-family="Arial" font-size="13px" font-style="normal" font-weight="normal" text-decoration="none" x="97.05908203125" y="571">latitud</text></g></g><g transform="translate(-6,-158) scale(1,1)"><g><path fill="none" stroke="none"/><text fill="#000000" stroke="none" font-family="Arial" font-size="13px" font-style="normal" font-weight="normal" text-decoration="none" x="187.22998046875" y="571">VARCHAR(15)</text></g></g><g transform="translate(-6,-158) scale(1,1)"><g><path fill="none" stroke="none"/><text fill="#000000" stroke="none" font-family="Arial" font-size="13px" font-style="normal" font-weight="normal" text-decoration="none" x="69" y="570.5"></text></g></g><g transform="translate(-6,-158) scale(1,1)"><g><path fill="none" stroke="none"/><text fill="#000000" stroke="none" font-family="Arial" font-size="13px" font-style="normal" font-weight="normal" text-decoration="none" x="69" y="586"></text></g></g><g transform="translate(-6,-158) scale(1,1)"><g><path fill="none" stroke="none"/><text fill="#000000" stroke="none" font-family="Arial" font-size="13px" font-style="normal" font-weight="normal" text-decoration="none" x="97.05908203125" y="586">longitud</text></g></g><g transform="translate(-6,-158) scale(1,1)"><g><path fill="none" stroke="none"/><text fill="#000000" stroke="none" font-family="Arial" font-size="13px" font-style="normal" font-weight="normal" text-decoration="none" x="187.22998046875" y="586">VARCHAR(15)</text></g></g><g transform="translate(-6,-158) scale(1,1)"><g><path fill="none" stroke="none"/><text fill="#000000" stroke="none" font-family="Arial" font-size="13px" font-style="normal" font-weight="normal" text-decoration="none" x="69" y="585.5"></text></g></g><g transform="translate(-6,-158) scale(1,1)"><g><path fill="none" stroke="none"/><text fill="#000000" stroke="none" font-family="Arial" font-size="13px" font-style="normal" font-weight="normal" text-decoration="none" x="69" y="601"></text></g></g><g transform="translate(-6,-158) scale(1,1)"><g><path fill="none" stroke="none"/><text fill="#000000" stroke="none" font-family="Arial" font-size="13px" font-style="normal" font-weight="normal" text-decoration="none" x="97.05908203125" y="601">lat</text></g></g><g transform="translate(-6,-158) scale(1,1)"><g><path fill="none" stroke="none"/><text fill="#000000" stroke="none" font-family="Arial" font-size="13px" font-style="normal" font-weight="normal" text-decoration="none" x="187.22998046875" y="601">DECIMAL(10, 7)</text></g></g><g transform="translate(-6,-158) scale(1,1)"><g><path fill="none" stroke="none"/><text fill="#000000" stroke="none" font-family="Arial" font-size="13px" font-style="normal" font-weight="normal" text-decoration="none" x="69" y="600.5"></text></g></g><g transform="translate(-6,-158) scale(1,1)"><g><path fill="none" stroke="none"/><text fill="#000000" stroke="none" font-family="Arial" font-size="13px" font-style="normal" font-weight="normal" text-decoration="none" x="69" y="616"></text></g></g><g transform="translate(-6,-158) scale(1,1)"><g><path fill="none" stroke="none"/><text fill="#000000" stroke="none" font-family="Arial" font-size="13px" font-style="normal" font-weight="normal" text-decoration="none" x="97.05908203125" y="616">lng</text></g></g><g transform="translate(-6,-158) scale(1,1)"><g><path fill="none" stroke="none"/><text fill="#000000" stroke="none" font-family="Arial" font-size="13px" font-style="normal" font-weight="normal" text-decoration="none" x="187.22998046875" y="616">DECIMAL(10, 7)</text></g></g><g transform="translate(-6,-158) scale(1,1)"><g><path fill="none" stroke="none"/><text fill="#000000" stroke="none" font-family="Arial" font-size="13px" font-style="normal" font-weight="normal" text-decoration="none" x="69" y="615.5"></text></g></g><g transform="translate(-6,-158) scale(1,1)"><g><path fill="none" stroke="none"/><text fill="#000000" stroke="none" font-family="Arial" font-size="13px" font-style="normal" font-weight="normal" text-decoration="none" x="69" y="631"></text></g></g><g transform="translate(-6,-158) scale(1,1)"><g><path fill="none" stroke="none"/><text fill="#000000" stroke="none" font-family="Arial" font-size="13px" font-style="normal" font-weight="normal" text-decoration="none" x="97.05908203125" y="631">altitud</text></g></g><g transform="translate(-6,-158) scale(1,1)"><g><path fill="none" stroke="none"/><text fill="#000000" stroke="none" font-family="Arial" font-size="13px" font-style="normal" font-weight="normal" text-decoration="none" x="187.22998046875" y="631">VARCHAR(15)</text></g></g><g transform="translate(-6,-158) scale(1,1)"><g><path fill="none" stroke="none"/><text fill="#000000" stroke="none" font-family="Arial" font-size="13px" font-style="normal" font-weight="normal" text-decoration="none" x="69" y="630.5"></text></g></g><g transform="translate(-6,-158) scale(1,1)"><g><path fill="none" stroke="none"/><text fill="#000000" stroke="none" font-family="Arial" font-size="13px" font-style="normal" font-weight="normal" text-decoration="none" x="69" y="646"></text></g></g><g transform="translate(-6,-158) scale(1,1)"><g><path fill="none" stroke="none"/><text fill="#000000" stroke="none" font-family="Arial" font-size="13px" font-style="normal" font-weight="normal" text-decoration="none" x="97.05908203125" y="646">carta</text></g></g><g transform="translate(-6,-158) scale(1,1)"><g><path fill="none" stroke="none"/><text fill="#000000" stroke="none" font-family="Arial" font-size="13px" font-style="normal" font-weight="normal" text-decoration="none" x="187.22998046875" y="646">VARCHAR(10)</text></g></g><g transform="translate(-6,-158) scale(1,1)"><g><path fill="none" stroke="none"/><text fill="#000000" stroke="none" font-family="Arial" font-size="13px" font-style="normal" font-weight="normal" text-decoration="none" x="69" y="645.5"></text></g></g><g transform="translate(-6,-158) scale(1,1)"><g><path fill="none" stroke="none"/><text fill="#000000" stroke="none" font-family="Arial" font-size="13px" font-style="normal" font-weight="normal" text-decoration="none" x="69" y="661"></text></g></g><g transform="translate(-6,-158) scale(1,1)"><g><path fill="none" stroke="none"/><text fill="#000000" stroke="none" font-family="Arial" font-size="13px" font-style="normal" font-weight="normal" text-decoration="none" x="97.05908203125" y="661">poblacion</text></g></g><g transform="translate(-6,-158) scale(1,1)"><g><path fill="none" stroke="none"/><text fill="#000000" stroke="none" font-family="Arial" font-size="13px" font-style="normal" font-weight="normal" text-decoration="none" x="187.22998046875" y="661">INTEGER(11)</text></g></g><g transform="translate(-6,-158) scale(1,1)"><g><path fill="none" stroke="none"/><text fill="#000000" stroke="none" font-family="Arial" font-size="13px" font-style="normal" font-weight="normal" text-decoration="none" x="69" y="660.5"></text></g></g><g transform="translate(-6,-158) scale(1,1)"><g><path fill="none" stroke="none"/><text fill="#000000" stroke="none" font-family="Arial" font-size="13px" font-style="normal" font-weight="normal" text-decoration="none" x="69" y="676"></text></g></g><g transform="translate(-6,-158) scale(1,1)"><g><path fill="none" stroke="none"/><text fill="#000000" stroke="none" font-family="Arial" font-size="13px" font-style="normal" font-weight="normal" text-decoration="none" x="97.05908203125" y="676">masculino</text></g></g><g transform="translate(-6,-158) scale(1,1)"><g><path fill="none" stroke="none"/><text fill="#000000" stroke="none" font-family="Arial" font-size="13px" font-style="normal" font-weight="normal" text-decoration="none" x="187.22998046875" y="676">INTEGER(11)</text></g></g><g transform="translate(-6,-158) scale(1,1)"><g><path fill="none" stroke="none"/><text fill="#000000" stroke="none" font-family="Arial" font-size="13px" font-style="normal" font-weight="normal" text-decoration="none" x="69" y="675.5"></text></g></g><g transform="translate(-6,-158) scale(1,1)"><g><path fill="none" stroke="none"/><text fill="#000000" stroke="none" font-family="Arial" font-size="13px" font-style="normal" font-weight="normal" text-decoration="none" x="69" y="691"></text></g></g><g transform="translate(-6,-158) scale(1,1)"><g><path fill="none" stroke="none"/><text fill="#000000" stroke="none" font-family="Arial" font-size="13px" font-style="normal" font-weight="normal" text-decoration="none" x="97.05908203125" y="691">femenino</text></g></g><g transform="translate(-6,-158) scale(1,1)"><g><path fill="none" stroke="none"/><text fill="#000000" stroke="none" font-family="Arial" font-size="13px" font-style="normal" font-weight="normal" text-decoration="none" x="187.22998046875" y="691">INTEGER(11)</text></g></g><g transform="translate(-6,-158) scale(1,1)"><g><path fill="none" stroke="none"/><text fill="#000000" stroke="none" font-family="Arial" font-size="13px" font-style="normal" font-weight="normal" text-decoration="none" x="69" y="690.5"></text></g></g><g transform="translate(-6,-158) scale(1,1)"><g><path fill="none" stroke="none"/><text fill="#000000" stroke="none" font-family="Arial" font-size="13px" font-style="normal" font-weight="normal" text-decoration="none" x="69" y="706"></text></g></g><g transform="translate(-6,-158) scale(1,1)"><g><path fill="none" stroke="none"/><text fill="#000000" stroke="none" font-family="Arial" font-size="13px" font-style="normal" font-weight="normal" text-decoration="none" x="97.05908203125" y="706">viviendas</text></g></g><g transform="translate(-6,-158) scale(1,1)"><g><path fill="none" stroke="none"/><text fill="#000000" stroke="none" font-family="Arial" font-size="13px" font-style="normal" font-weight="normal" text-decoration="none" x="187.22998046875" y="706">INTEGER(11)</text></g></g><g transform="translate(-6,-158) scale(1,1)"><g><path fill="none" stroke="none"/><text fill="#000000" stroke="none" font-family="Arial" font-size="13px" font-style="normal" font-weight="normal" text-decoration="none" x="69" y="705.5"></text></g></g><g transform="translate(-6,-158) scale(1,1)"><g><path fill="none" stroke="none"/><text fill="#000000" stroke="none" font-family="Arial" font-size="13px" font-style="normal" font-weight="normal" text-decoration="none" x="69" y="721"></text></g></g><g transform="translate(-6,-158) scale(1,1)"><g><path fill="none" stroke="none"/><text fill="#000000" stroke="none" font-family="Arial" font-size="13px" font-style="normal" font-weight="normal" text-decoration="none" x="97.05908203125" y="721">activo</text></g></g><g transform="translate(-6,-158) scale(1,1)"><g><path fill="none" stroke="none"/><text fill="#000000" stroke="none" font-family="Arial" font-size="13px" font-style="normal" font-weight="normal" text-decoration="none" x="187.22998046875" y="721">BOOLEAN</text></g></g><g transform="translate(-6,-158) scale(1,1)"><g><path fill="none" stroke="none"/><text fill="#000000" stroke="none" font-family="Arial" font-size="13px" font-style="normal" font-weight="normal" text-decoration="none" x="69" y="720.5"></text></g></g><g transform="translate(-6,-158) scale(1,1)"><path fill="none" stroke="#000000" d="M 64 320 L 24 320 M 24 320 A 8 8 0 0 0 16 328 L 16 480 M 16 480 A 8 8 0 0 0 24 488 L 64 488" stroke-miterlimit="10"/></g><g transform="translate(-6,-158) scale(1,1)"><path fill="none" stroke="#000000" d="M 50 488 L 64 495" stroke-miterlimit="10"/></g><g transform="translate(-6,-158) scale(1,1)"><path fill="none" stroke="#000000" d="M 50 488 L 64 481" stroke-miterlimit="10"/></g><g transform="translate(-6,-158) scale(1,1)"><path fill="#FFFFFF" stroke="none" d="M 35 488 C 35 484.1340064 38.1340064 481 42 481 C 45.8659936 481 49 484.1340064 49 488 C 49 491.8659936 45.8659936 495 42 495 C 38.1340064 495 35 491.8659936 35 488 Z"/></g><g transform="translate(-6,-158) scale(1,1)"><path fill="none" stroke="#000000" d="M 35 488 C 35 484.1340064 38.1340064 481 42 481 C 45.8659936 481 49 484.1340064 49 488 C 49 491.8659936 45.8659936 495 42 495 C 38.1340064 495 35 491.8659936 35 488 Z" stroke-miterlimit="10"/></g><g transform="translate(-6,-158) scale(1,1)"><path fill="none" stroke="#000000" d="M 57 327 L 57 313" stroke-miterlimit="10"/></g><g transform="translate(-6,-158) scale(1,1)"><path fill="none" stroke="#000000" d="M 50 327 L 50 313" stroke-miterlimit="10"/></g><g transform="translate(-6,-158) scale(1,1)"><g><path fill="none" stroke="none"/><text fill="#000000" stroke="none" font-family="Arial" font-size="13px" font-style="normal" font-weight="normal" text-decoration="none" x="37.5" y="340.5"></text></g></g><g transform="translate(-6,-158) scale(1,1)"><g><path fill="none" stroke="none"/><text fill="#000000" stroke="none" font-family="Arial" font-size="13px" font-style="normal" font-weight="normal" text-decoration="none" x="37.5" y="479.5"></text></g></g></g></svg>